<?xml version="1.0" encoding="UTF-8" standalone="no"?>
<svg
   xmlns:dc="http://purl.org/dc/elements/1.1/"
   xmlns:cc="http://creativecommons.org/ns#"
   xmlns:rdf="http://www.w3.org/1999/02/22-rdf-syntax-ns#"
   xmlns:svg="http://www.w3.org/2000/svg"
   xmlns="http://www.w3.org/2000/svg"
   viewBox="0 0 1052.5 827.1875"
   height="827.1875"
   width="1052.5"
   xml:space="preserve"
   version="1.1"
   id="svg2"><metadata
     id="metadata8"><rdf:RDF><cc:Work
         rdf:about=""><dc:format>image/svg+xml</dc:format><dc:type
           rdf:resource="http://purl.org/dc/dcmitype/StillImage" /></cc:Work></rdf:RDF></metadata><defs
     id="defs6" /><g
     transform="matrix(1.25,0,0,-1.25,0,827.1875)"
     id="g10"><path
       id="path12"
       style="fill:none;stroke:#000000;stroke-width:0.035;stroke-linecap:round;stroke-linejoin:round;stroke-miterlimit:10;stroke-dasharray:none;stroke-opacity:1"
       d="m 285.85,631.08 -40.88,-6.25 -40.78,-6.84 0,0 -36.45,-6.76 -36.31,-7.49 0,0 -30.09,-6.74 -29.99,-7.15 0,0 -4.94,-1.52 -4.73,-2.06 -4.48,-2.58 -4.15,-3.07 0,0 -4.12,-3.92 -3.55,-4.46 -2.91,-4.89 0,0 -2.62,-5.88 -2.06,-6.11 -1.47,-6.27 0,0 -1.22,-8.14 -0.66,-8.21 -0.09,-8.23 0,0 0.76,-16.47 1.48,-16.41 0,0 1.33,-14.55 0.71,-14.6 0,0 -0.15,-11.69 -1.11,-11.65 0,0 -1.61,-8.45 -2.49,-8.23 0,0 -1.65,-3.14 -2.43,-2.58 -3.04,-1.84 0,0 -2.07,-1.15 -1.8,-1.55 -1.44,-1.88 0,0 -0.79,-1.89 -0.19,-2.04 0.45,-2 0,0 1.31,-2.67 1.73,-2.43 2.09,-2.11 0,0 5.29,-4.23 5.59,-3.84 0,0 5.96,-4.29 5.39,-4.98 4.75,-5.6 4.04,-6.12 0,0 3.16,-6.42 2.29,-6.78 1.4,-7.02 0.46,-7.14 0,0 -0.48,-6.56 -1.45,-6.41 -2.39,-6.14 -3.26,-5.71 0,0 -3.1,-3.99 -3.6,-3.55 -4.05,-3.02 -4.41,-2.47 -4.71,-1.85 0,0 -4.99,-2.03 -4.6,-2.81 -4.1,-3.5 -3.48,-4.11 -2.79,-4.62 -2.02,-4.99 0,0 -3.84,-13.44 -3.13,-13.63 -2.41,-13.76 -1.68,-13.88 0,0 -1.02,-14.74 -0.24,-14.78 0.53,-14.78 1.31,-14.72 0,0 1.43,-8.39 2.33,-8.18 3.21,-7.89 4.04,-7.48 4.83,-7.01 0,0 3.41,-3.91 3.85,-3.49 4.22,-3.02 4.54,-2.51 0,0 22.57,-10.46 22.8,-9.93 0,0 27.87,-11.3 28.18,-10.51 0,0 31.14,-10.73 31.36,-10.06 159.26,-49.19 227.39,54.88 0,0 87.72,21.6 0,0 37.62,9.59 37.54,9.86 0,0 65.2,17.52 0,0 2.6,0.95 2.39,1.38 2.11,1.78 0,0 0.73,1.16 0.12,1.36 -0.49,1.28 0,0 -2.15,2.63 -2.58,2.22 0,0 -4.43,2.82 -4.69,2.36 0,0 -6.12,2.49 -6.24,2.16 0,0 -6.02,2.36 -5.66,3.13 -5.21,3.84 -4.65,4.5 0,0 -3.88,4.95 -3.14,5.46 -2.33,5.85 -1.48,6.12 0,0 -0.65,6.6 0.21,6.63 1.09,6.54 1.94,6.34 0,0 2.89,6.54 3.56,6.2 4.19,5.79 4.78,5.32 0,0 5.69,6.29 5.01,6.85 4.3,7.32 0,0 4.05,8.56 3.42,8.83 2.76,9.06 0,0 2.8,11.83 2.17,11.95 1.53,12.06 0,0 2.15,25.16 1.37,25.22 0,0 0.73,11.34 1.31,11.3 0,0 1.83,10.61 2.46,10.49 0,0 2.58,8.61 3.11,8.43 0,0 1.62,3.17 2.16,2.84 2.63,2.42 0,0 1.92,1.8 1.52,2.14 1.08,2.4 0,0 0.49,2.42 -0.09,2.47 -0.67,2.37 0,0 -1.47,2.88 -1.89,2.63 -2.27,2.3 0,0 -5.21,4.14 -5.57,3.63 0,0 -5.47,3.68 -5,4.3 -4.45,4.86 -3.85,5.35 0,0 -3.22,5.8 -2.52,6.14 -1.79,6.39 -1.03,6.55 0,0 -0.29,6.76 0.48,6.74 1.24,6.65 1.98,6.47 0,0 2.73,6.31 3.39,5.98 4.02,5.58 4.59,5.12 0,0 3.12,3.73 2.43,4.22 1.64,4.58 0.82,4.8 0,0 -0.1,3.3 -0.84,3.19 -1.54,2.92 -2.14,2.5 -2.66,1.96 0,0 -10.59,5.6 -10.97,4.81 -11.29,4.01 0,0 -50.35,15.64 -50.45,15.29 0,0 -50.7,14.66 -50.97,13.71 0,0 -13.11,2.98 -13.27,2.21 -13.38,1.43 -13.43,0.63 0,0 -15.39,-0.03 -15.37,-0.6 -15.33,-1.2 -15.28,-1.78 0,0 -89.33,-12.33 -89.26,-12.77" /><path
       id="path14"
       style="fill:none;stroke:#000000;stroke-width:0.035;stroke-linecap:round;stroke-linejoin:round;stroke-miterlimit:10;stroke-dasharray:none;stroke-opacity:1"
       d="m 386.03,417.36 0.74,-8.54 0.25,-8.56 0,0 -0.34,-7.23 -1.01,-7.17 0,0 -1.29,-5.1 -1.92,-4.9 0,0 -1.18,-1.63 -1.7,-1.09 -1.98,-0.38 0,0 -5.34,0.23 -5.3,0.68 -5.23,1.12 0,0 -99.61,26 0,0 -48.12,12.78 -48.05,13.04 0,0 -36.5,10.24 -36.37,10.67 0,0 -4.39,1.73 -4.04,2.44 -3.57,3.09 -3,3.64 -2.35,4.09 0,0 -3.48,8.14 -2.94,8.36 -2.38,8.53 -1.8,8.67 0,0 -1.27,8.98 -0.68,9.05 -0.09,9.08 0.5,9.06 0,0 0.8,5.1 1.51,4.93 2.19,4.68 2.81,4.33 3.38,3.89 0,0 1.77,1.36 2.05,0.87 2.2,0.33 2.21,-0.24 0,0 42.17,-10.67 0,0 25.12,-6.97 24.97,-7.53 0,0 28.87,-9.31 28.74,-9.73 0,0 43.89,-15.51 43.69,-16.05 0,0 13.11,-5.42 12.73,-6.28 12.28,-7.12 0,0 5.55,-3.94 5.06,-4.57 4.48,-5.13 3.86,-5.62 0,0 3.3,-6.21 2.62,-6.52 1.91,-6.76 1.17,-6.93" /><path
       id="path16"
       style="fill:none;stroke:#000000;stroke-width:0.035;stroke-linecap:round;stroke-linejoin:round;stroke-miterlimit:10;stroke-dasharray:none;stroke-opacity:1"
       d="m 766.24,495.98 -1.63,-6.2 -2.47,-5.92 -3.26,-5.53 -3.99,-5.03 0,0 -5.07,-5.03 -5.55,-4.51 -5.97,-3.93 -6.33,-3.32 0,0 -14.47,-6.2 -14.79,-5.39 -15.06,-4.58 0,0 -48.45,-12.98 -48.58,-12.45 0,0 -65.09,-16.16 0,0 -56.22,-13.61 0,0 -48.97,-11.62 0,0 -3.23,-0.57 -3.28,-0.19 0,0 -1.44,0.31 -1.19,0.87 -0.73,1.28 0,0 -1.52,5.35 -1.2,5.43 0,0 -1.16,7.25 -0.74,7.3 0,0 -0.47,8.63 -0.15,8.64 0,0 0.35,6.94 1.07,6.87 1.77,6.71 2.45,6.51 0,0 2.15,4.12 2.71,3.79 3.2,3.38 3.64,2.9 4.01,2.37 0,0 11.48,5.2 11.84,4.29 12.15,3.36 0,0 50.59,11.62 50.69,11.2 0,0 71.02,15.18 71.09,14.85 0,0 13.94,2.37 14.06,1.4 14.13,0.42 0,0 3.99,-0.49 3.78,-1.39 3.36,-2.21 2.76,-2.92 2.02,-3.48 0,0 2.09,-5.98 1.17,-6.23 0.22,-6.32 -0.72,-6.3" /><path
       id="path18"
       style="fill:none;stroke:#000000;stroke-width:0.035;stroke-linecap:round;stroke-linejoin:round;stroke-miterlimit:10;stroke-dasharray:none;stroke-opacity:1"
       d="m 791.72,357.46 0.77,-8.22 -0.09,-8.25 -0.95,-8.2 -1.79,-8.06 0,0 -1.85,-5.22 -2.56,-4.91 -3.22,-4.51 -3.81,-4.02 -4.34,-3.45 0,0 -8.86,-5.61 -9.25,-4.93 -9.6,-4.23 -9.89,-3.49 0,0 -44.29,-13.39 -44.53,-12.59 0,0 -48.26,-13.24 0,0 -45.26,-12.53 0,0 -38.08,-10.63 0,0 -17.39,-5.05 0,0 -4.62,-1.11 -4.71,-0.57 -4.75,-0.05 0,0 -2.49,0.4 -2.34,0.96 -2.07,1.45 -1.68,1.88 0,0 -2.23,3.8 -1.54,4.12 -0.79,4.34 0,0 -0.87,12.31 -0.29,12.35 0,0 0.33,7.47 0.97,7.41 1.62,7.29 2.25,7.13 0,0 2.54,5.59 3.38,5.13 4.14,4.55 4.79,3.85 0,0 7.87,5.04 8.18,4.54 8.44,4.03 8.67,3.49 0,0 44.26,16 44.44,15.51 0,0 27.72,9.33 27.83,9.02 0,0 24.65,7.63 24.77,7.21 0,0 41.78,11.39 0,0 3.76,0.67 3.82,0.03 3.78,-0.6 0,0 2.47,-0.89 2.24,-1.4 1.9,-1.83 0,0 3.47,-4.62 2.96,-4.96 0,0 2.96,-6.31 2.37,-6.56 0,0 1.91,-7.18 1.36,-7.31" /><path
       id="path20"
       style="fill:none;stroke:#000000;stroke-width:0.035;stroke-linecap:round;stroke-linejoin:round;stroke-miterlimit:10;stroke-dasharray:none;stroke-opacity:1"
       d="m 274.95,339.59 59.21,-13.31 0,0 52.08,-12.56 0,0 43.9,-11.23 0,0 5.3,-1.81 4.96,-2.58 0,0 2.12,-1.62 1.76,-2.01 1.32,-2.32 0,0 2.39,-5.97 1.93,-6.15 0,0 1.75,-7.57 1.21,-7.68 0,0 0.75,-8.22 0.24,-8.26 0,0 -0.33,-10.65 -1.01,-10.6 0,0 -0.91,-3.81 -1.72,-3.52 -2.43,-3.07 0,0 -2.79,-2.13 -3.25,-1.28 -3.48,-0.35 0,0 -8.41,0.77 -8.27,1.69 0,0 -20.44,5.19 0,0 -47.79,11.73 0,0 -56.94,13.87 0,0 -61.31,14.83 0,0 -45.33,11.19 -45.2,11.68 0,0 -13.15,3.93 -12.87,4.76 -12.54,5.58 0,0 -5.25,2.97 -4.82,3.64 -4.3,4.23 -3.72,4.75 0,0 -2.88,4.99 -2.1,5.36 -1.28,5.62 -0.43,5.75 0,0 0.47,6.47 1.42,6.33 2.32,6.06 3.19,5.65 0,0 2.76,3.4 3.36,2.8 3.84,2.11 4.17,1.34 4.34,0.51 0,0 10.53,-0.07 10.52,-0.65 10.46,-1.25 10.37,-1.82 0,0 63.18,-13.15 63.1,-13.56" /><path
       id="path22"
       style="fill:none;stroke:#000000;stroke-width:0.035;stroke-linecap:round;stroke-linejoin:round;stroke-miterlimit:10;stroke-dasharray:none;stroke-opacity:1"
       d="m 211.37,197.07 42.63,-14.58 42.45,-15.11 0,0 8.68,-3.47 8.45,-4 8.18,-4.53 7.88,-5.03 0,0 5.03,-4.01 4.41,-4.67 3.7,-5.26 2.92,-5.73 0,0 2.83,-7.48 2.26,-7.67 1.68,-7.82 1.08,-7.93 0,0 1.59,-19.66 0,0 0.38,-8.24 0.13,-8.25 0,0 -0.25,-13.17 0,0 -0.27,-0.87 -0.68,-0.6 -0.9,-0.18 0,0 -3.93,0.68 0,0 -44.89,12.79 0,0 -50.84,14.62 0,0 -59.39,17.28 0,0 -33.35,10.07 -33.18,10.62 -32.99,11.2 0,0 -9.69,3.76 -9.43,4.41 -9.09,5.05 -8.73,5.66 -8.33,6.24 0,0 -4.19,3.84 -3.66,4.35 -3.07,4.79 -2.43,5.14 -1.74,5.41 -1.04,5.59 0,0 -0.55,7.99 0.22,8 0.99,7.95 1.75,7.81 2.51,7.6 0,0 2.21,4.66 2.9,4.27 3.52,3.78 4.06,3.19 0,0 4.29,2.34 4.64,1.54 4.85,0.68 4.89,-0.19 0,0 12.11,-1.96 11.97,-2.7 11.78,-3.41 0,0 52.88,-17.25 52.77,-17.54" /><path
       id="path24"
       style="fill:none;stroke:#000000;stroke-width:0.035;stroke-linecap:round;stroke-linejoin:round;stroke-miterlimit:10;stroke-dasharray:none;stroke-opacity:1"
       d="m 734.96,146.12 -3.26,-2.53 -3.59,-2.05 -3.84,-1.52 0,0 -41.73,-12.83 0,0 -25.03,-7.24 -25.12,-6.87 0,0 -28.41,-7.36 -28.49,-7.06 0,0 -57.96,-14.17 0,0 -53.45,-13.31 0,0 -44.76,-11.36 0,0 -18.15,-5.04 0,0 -4.51,-1.11 -4.6,-0.66 -4.64,-0.2 0,0 -3.19,0.47 -2.94,1.34 -2.46,2.11 0,0 -2.26,3.13 -1.6,3.51 -0.87,3.76 0,0 -0.98,9.88 -0.32,9.93 0,0 0.47,8.51 1.43,8.41 2.37,8.19 3.26,7.87 0,0 2.95,5.2 3.61,4.76 4.21,4.24 4.74,3.64 5.17,2.99 0,0 11.19,5.1 11.46,4.46 11.69,3.8 11.89,3.13 0,0 63.15,14.44 63.27,13.85 0,0 53.41,11.29 53.47,11.01 0,0 11.96,2.06 12.05,1.35 12.11,0.64 0,0 4.65,-0.32 4.51,-1.17 4.23,-1.96 3.79,-2.71 0,0 3.33,-3.41 2.7,-3.93 1.99,-4.33 1.21,-4.61 0,0 0.82,-6.4 0.26,-6.44 0,0 -0.33,-6.41 -0.89,-6.35 0,0 -1.31,-5.51 -1.85,-5.35 0,0 -2.01,-3.71 -2.8,-3.15" /></g></svg>